<?xml version="1.0" standalone="no"?>
<!DOCTYPE svg PUBLIC "-//W3C//DTD SVG 20010904//EN"
 "http://www.w3.org/TR/2001/REC-SVG-20010904/DTD/svg10.dtd">
<svg version="1.0" xmlns="http://www.w3.org/2000/svg"
 width="660.000000pt" height="660.000000pt" viewBox="0 0 660.000000 660.000000"
 preserveAspectRatio="xMidYMid meet">
<metadata>
Created by potrace 1.11, written by Peter Selinger 2001-2013
</metadata>
<g transform="translate(0.000000,660.000000) scale(0.100000,-0.100000)"
fill="#000000" stroke="none">
<path d="M3080 6594 c-720 -65 -1308 -294 -1845 -721 -141 -112 -396 -367
-508 -508 -389 -490 -620 -1039 -704 -1670 -24 -181 -24 -609 0 -790 84 -631
315 -1180 704 -1670 112 -141 367 -396 508 -508 490 -389 1039 -620 1670 -704
181 -24 609 -24 790 0 631 84 1180 315 1670 704 141 112 396 367 508 508 389
490 620 1039 704 1670 12 95 17 201 17 395 0 194 -5 300 -17 395 -84 631 -315
1180 -704 1670 -112 141 -367 396 -508 508 -488 388 -1047 623 -1665 702 -119
16 -522 28 -620 19z m605 -1013 c879 -147 1587 -760 1849 -1602 151 -484 136
-1029 -40 -1506 l-37 -101 -56 48 c-31 26 -82 62 -113 80 -32 17 -58 34 -58
37 0 3 13 44 29 92 144 430 145 874 5 1300 -193 586 -646 1060 -1219 1276
-246 93 -442 128 -710 129 -354 1 -643 -69 -961 -234 l-132 -67 -52 59 c-29
33 -75 77 -101 98 l-49 39 85 51 c293 172 634 285 970 320 141 14 451 4 590
-19z m-1903 -531 c129 -40 228 -139 268 -268 66 -212 -54 -436 -268 -502 -212
-66 -436 54 -502 268 -95 306 196 597 502 502z m1818 -275 c614 -119 1083
-590 1206 -1210 28 -137 25 -425 -5 -565 -66 -311 -201 -561 -426 -786 -276
-276 -603 -422 -990 -440 -872 -41 -1622 709 -1581 1581 13 285 93 528 253
770 84 127 272 316 398 402 210 141 447 232 687 263 103 13 357 4 458 -15z
m-2257 -705 c31 -17 57 -36 57 -41 0 -4 -9 -31 -20 -59 -29 -74 -77 -262 -95
-370 -98 -609 109 -1256 550 -1719 572 -600 1419 -804 2175 -524 52 19 159 68
236 108 l142 72 52 -59 c29 -33 74 -77 101 -98 l49 -39 -82 -49 c-260 -156
-550 -260 -858 -309 -159 -24 -499 -24 -660 1 -943 146 -1700 829 -1931 1742
-49 196 -63 317 -63 554 -1 305 42 552 140 817 l37 101 56 -48 c31 -26 82 -62
114 -80z m3739 -1780 c129 -40 228 -139 268 -268 66 -212 -54 -436 -268 -502
-212 -66 -436 54 -502 268 -95 306 196 597 502 502z"/>
<path d="M3253 4230 c-49 -29 -63 -66 -63 -165 l0 -85 -223 0 c-260 0 -278 -5
-311 -82 -23 -57 -16 -107 22 -149 31 -34 80 -48 175 -49 l57 0 0 -410 0 -410
-87 0 c-71 0 -95 -4 -121 -20 -58 -36 -78 -116 -44 -180 34 -64 59 -70 309
-70 l221 0 4 -100 c3 -97 4 -101 35 -131 60 -61 169 -48 213 24 16 25 20 50
20 120 l0 87 93 0 c150 1 231 28 321 111 90 82 144 217 132 330 -7 70 -38 155
-75 206 l-28 39 19 24 c65 80 98 205 81 305 -38 224 -206 355 -455 355 l-88 0
0 88 c0 69 -4 94 -20 119 -37 62 -124 82 -187 43z m397 -528 c39 -19 70 -71
70 -117 0 -46 -31 -98 -70 -117 -30 -16 -65 -18 -252 -18 l-218 0 0 135 0 135
218 0 c187 0 222 -2 252 -18z m0 -570 c39 -19 70 -71 70 -117 0 -46 -31 -98
-70 -117 -30 -16 -65 -18 -252 -18 l-218 0 0 135 0 135 218 0 c187 0 222 -2
252 -18z"/>
</g>
</svg>
