<?xml version="1.0" standalone="no"?>
<!DOCTYPE svg PUBLIC "-//W3C//DTD SVG 20010904//EN"
 "http://www.w3.org/TR/2001/REC-SVG-20010904/DTD/svg10.dtd">
<svg version="1.0" xmlns="http://www.w3.org/2000/svg"
 width="1000.000000pt" height="1000.000000pt" viewBox="0 0 1000.000000 1000.000000"
 preserveAspectRatio="xMidYMid meet">
<metadata>
Created by potrace 1.11, written by Peter Selinger 2001-2013
</metadata>
<g transform="translate(0.000000,1000.000000) scale(0.100000,-0.100000)"
fill="#000000" stroke="none">
<path d="M4685 9989 c-1084 -68 -2124 -494 -2955 -1210 -134 -115 -395 -374
-507 -504 -658 -760 -1067 -1692 -1187 -2700 -22 -186 -36 -402 -36 -562 1
-1524 688 -2957 1880 -3920 940 -758 2197 -1157 3410 -1083 1085 67 2089 467
2930 1169 223 186 513 484 701 721 403 509 710 1111 884 1730 168 601 226
1204 174 1800 -134 1541 -979 2940 -2281 3778 -883 568 -1959 847 -3013 781z
m393 -1803 c139 -35 255 -66 257 -68 2 -2 -45 -199 -105 -438 -60 -239 -106
-437 -104 -440 3 -3 102 -28 220 -56 l214 -51 10 36 c5 20 54 215 108 434 55
219 102 400 103 402 2 2 124 -26 272 -62 172 -42 267 -70 267 -78 0 -11 -205
-856 -214 -881 -3 -6 50 -32 122 -59 573 -214 891 -500 966 -867 20 -97 21
-269 1 -381 -68 -392 -275 -641 -620 -748 -36 -11 -65 -21 -65 -24 0 -2 29
-19 64 -39 152 -85 312 -229 392 -353 148 -229 168 -529 59 -873 -95 -299
-245 -525 -441 -666 -124 -89 -320 -165 -499 -194 -206 -33 -553 -20 -877 34
l-137 22 -112 -450 c-61 -248 -113 -452 -115 -454 -3 -5 -544 129 -544 134 0
2 50 203 110 446 61 243 107 444 103 448 -4 4 -102 31 -216 60 -141 36 -211
50 -215 43 -4 -6 -56 -209 -116 -450 l-110 -440 -235 59 c-130 33 -252 63
-272 68 l-36 10 112 452 c85 345 109 455 99 461 -7 4 -251 67 -544 141 -292
74 -534 137 -537 140 -8 8 258 616 269 616 5 0 100 -23 211 -50 205 -51 264
-58 314 -39 39 14 88 63 107 107 26 60 626 2479 626 2526 0 107 -66 204 -172
251 -34 16 -155 51 -268 79 -113 27 -207 51 -209 53 -2 1 29 133 69 293 61
244 75 290 89 286 31 -9 896 -225 990 -246 61 -15 96 -19 100 -12 3 6 55 206
115 446 88 353 111 436 125 436 9 0 130 -29 269 -64z"/>
<path d="M4836 6044 c-75 -301 -135 -548 -134 -550 7 -6 371 -93 483 -115 158
-31 472 -34 573 -7 101 28 172 68 238 133 72 71 106 138 130 255 65 321 -179
569 -707 720 -81 24 -431 110 -444 110 -1 0 -64 -246 -139 -546z"/>
<path d="M4416 4353 c-81 -323 -149 -595 -152 -604 -4 -14 31 -26 223 -73 499
-122 779 -150 1028 -101 243 48 394 187 439 408 20 94 20 135 1 215 -52 222
-265 401 -640 540 -156 58 -489 149 -721 197 l-31 6 -147 -588z"/>
</g>
</svg>
